<?xml version="1.0" encoding="utf-8"?>
<!-- Generator: Adobe Illustrator 27.9.0, SVG Export Plug-In . SVG Version: 6.00 Build 0)  -->
<!DOCTYPE svg PUBLIC "-//W3C//DTD SVG 1.1//EN" "http://www.w3.org/Graphics/SVG/1.1/DTD/svg11.dtd" [
	<!ENTITY ns_extend "http://ns.adobe.com/Extensibility/1.0/">
	<!ENTITY ns_ai "http://ns.adobe.com/AdobeIllustrator/10.0/">
	<!ENTITY ns_graphs "http://ns.adobe.com/Graphs/1.0/">
	<!ENTITY ns_vars "http://ns.adobe.com/Variables/1.0/">
	<!ENTITY ns_imrep "http://ns.adobe.com/ImageReplacement/1.0/">
	<!ENTITY ns_sfw "http://ns.adobe.com/SaveForWeb/1.0/">
	<!ENTITY ns_custom "http://ns.adobe.com/GenericCustomNamespace/1.0/">
	<!ENTITY ns_adobe_xpath "http://ns.adobe.com/XPath/1.0/">
]>
<svg version="1.1" id="Layer_1" xmlns:x="&ns_extend;" xmlns:i="&ns_ai;" xmlns:graph="&ns_graphs;"
	 xmlns="http://www.w3.org/2000/svg" xmlns:xlink="http://www.w3.org/1999/xlink" x="0px" y="0px" viewBox="0 0 80 80"
	 style="enable-background:new 0 0 80 80;" xml:space="preserve">
<style type="text/css">
	.st0{fill:#333333;}
</style>
<metadata>
	<sfw  xmlns="&ns_sfw;">
		<slices></slices>
		<sliceSourceBounds  bottomLeftOrigin="true" height="61" width="57.2" x="11.4" y="-69.6"></sliceSourceBounds>
	</sfw>
</metadata>
<g>
	<path class="st0" d="M11.4,42.9v-7.6c2.3,0,4-0.7,5.2-2c1.2-1.3,1.7-4.4,1.7-9.1c0-3.6,0.1-6.2,0.4-8c0.3-1.7,0.9-3.2,1.9-4.3
		c1-1.2,2.3-2,3.9-2.5c1.6-0.5,3.9-0.8,6.8-0.8h1.7v7.6c-3.1,0-4.9,0.3-5.5,1c-0.6,0.6-0.9,1.9-1,3.7c-0.1,5.1-0.3,8.4-0.5,9.9
		s-0.7,3-1.4,4.4c-0.7,1.4-2.1,2.7-4.1,4c1.9,1.1,3.3,2.5,4.1,4.1c0.9,1.6,1.4,3.9,1.5,6.9l0.5,9.2c0.2,0.9,0.6,1.6,1.4,2
		c0.7,0.5,2.4,0.7,5,0.7v7.6h-1.7c-3.4,0-6-0.4-7.8-1.2s-3.2-2-4-3.8c-0.8-1.8-1.2-4.6-1.2-8.5c0-4.3-0.1-7.1-0.4-8.3
		c-0.3-1.2-0.9-2.3-1.7-3.3C15.3,43.6,13.7,43,11.4,42.9z"/>
	<path class="st0" d="M68.6,42.9c-2.3,0-4,0.7-5.2,2.1c-1.2,1.4-1.7,4.4-1.7,9c0,3.6-0.1,6.3-0.4,8s-0.9,3.2-1.9,4.3
		c-1,1.2-2.3,2-3.9,2.5c-1.6,0.5-3.9,0.8-6.8,0.8h-1.7V62c2.9,0,4.7-0.3,5.4-0.9c0.7-0.6,1-1.9,1.1-3.7c0.1-5.4,0.3-8.9,0.6-10.4
		c0.3-1.5,0.8-3,1.6-4.3c0.8-1.3,2-2.5,3.8-3.5c-1.8-1.2-3.1-2.3-3.8-3.5c-0.7-1.1-1.2-2.4-1.5-3.7c-0.3-1.3-0.4-3.8-0.6-7.5
		c-0.1-3.6-0.3-5.7-0.4-6.3c-0.2-0.5-0.6-1-1.2-1.4c-0.6-0.4-2.3-0.6-4.9-0.6V8.6h1.7c3.4,0,6,0.4,7.8,1.2s3.2,2,4,3.8
		c0.8,1.8,1.2,4.6,1.2,8.5c0,4.5,0.2,7.3,0.5,8.5c0.3,1.2,0.9,2.2,1.7,3.2c0.8,1,2.4,1.5,4.7,1.6V42.9z"/>
</g>
</svg>
